<?xml version="1.0" encoding="UTF-8"?>
<svg xmlns="http://www.w3.org/2000/svg" viewBox="0 0 1024 1024" version="1.1" style="fill-rule:evenodd;clip-rule:evenodd;stroke-linejoin:round;stroke-miterlimit:2;">
    <g transform="matrix(0.862746,0,0,0.862746,29.5428,3.06749)">
        <g transform="matrix(1.1529,0,0,1.1529,-57.825,-87.1965)">
            <path d="M447.445,196.435C485.729,184.513 526.426,178.09 568.612,178.09C793.538,178.09 976.149,360.701 976.149,585.626C976.149,810.552 793.538,993.163 568.612,993.163C530.408,993.163 493.425,987.895 458.35,978.046L549.1,911.08C555.556,911.462 562.062,911.656 568.612,911.656C732.428,911.656 868.187,790.576 891.203,633.104L774.441,633.104C766.534,633.104 760.115,626.685 760.115,618.779L760.115,590.127C760.115,582.221 766.534,575.802 774.441,575.802L894.496,575.802C889.651,412.437 764.383,279.087 604.49,261.552L604.49,378.047C604.49,385.953 598.071,392.372 590.164,392.372L561.513,392.372C553.606,392.372 547.187,385.953 547.187,378.047L547.187,260.291C525.079,261.728 503.569,265.373 482.875,271.007L447.445,196.435Z"/>
        </g>
        <g transform="matrix(1.95277,-0.0778505,0.0681075,1.70837,-541.628,114.488)">
            <path d="M367.396,547.842C370.396,549.342 379.555,553.031 384.787,554.069C389.364,554.977 394.267,555.231 398.787,554.069C404.62,552.569 414.453,549.569 419.787,545.069C425.12,540.569 428.984,533.865 430.787,527.069C432.953,518.902 433.887,507.481 433.091,497.69C432.041,484.775 424.485,449.581 424.485,449.581C424.485,449.581 392.87,460.444 365.113,451.605C345.479,445.352 321.231,423.961 308.906,405.668C296.581,387.376 290.853,363.926 291.164,341.849C291.477,319.582 297.939,292.532 310.787,272.069C324.891,249.605 375.787,207.069 375.787,207.069C375.787,207.069 367.849,165.489 365.787,149.069C362.835,125.561 368.854,92.924 378.773,72.549C388.291,52.997 412.215,16.158 425.298,26.818C438.381,37.479 465.218,86.777 457.272,136.511C453.29,161.436 439.499,186.299 430.418,202.392C423.655,214.378 402.787,233.069 402.787,233.069C402.787,233.069 403.622,241.304 404.374,245.369C406.027,254.307 412.705,286.691 412.705,286.691L417.603,286.222C417.603,286.222 429.858,285.777 435.787,287.069C443.317,288.71 454.953,291.735 462.787,296.069C470.443,300.304 477.287,306.902 482.787,313.069C488.079,319.003 492.787,325.902 495.787,333.069C498.787,340.235 500.86,348.223 500.787,356.069C500.696,365.742 498.895,381.953 495.244,391.108C491.398,400.752 484.976,410.883 477.15,418.554C468.434,427.096 442.951,442.363 442.951,442.363C442.951,442.363 448.647,474.284 449.787,487.069C450.734,497.693 451.546,509.383 449.787,519.069C448.109,528.306 443.064,538.683 439.23,545.183C436.197,550.326 426.787,558.069 426.787,558.069C415.716,566.493 403.62,571.569 390.787,572.069C377.953,572.569 359.539,567.677 349.787,561.069C340.521,554.79 333.848,542.453 332.272,532.42C330.696,522.387 335.591,508.012 340.328,500.871C344.503,494.577 353.36,490.265 360.207,489.222C367.054,488.178 375.96,491.119 381.411,494.612C386.842,498.091 391.426,503.897 392.911,510.174C394.409,516.51 393.671,525.671 390.401,532.628C384.977,544.166 366.787,545.069 366.787,545.069C366.787,545.069 366.55,547.418 367.396,547.842ZM422.787,320.069C422.291,319.984 419.379,319.628 419.379,319.628C419.189,319.518 439.787,426.069 439.787,426.069C439.787,426.069 485.423,392.986 468.685,353.233C455.974,323.044 428.733,321.085 422.787,320.069ZM420.359,66.584C413.309,64.214 396.909,83.388 391.746,96.645C385.547,112.563 383.591,141.15 386.398,162.387C387.734,172.497 392.787,194.069 392.787,194.069C392.787,194.069 412.796,175.151 418.787,163.069C425.662,149.201 433.342,126.782 434.041,110.864C434.695,95.981 427.408,68.954 420.359,66.584ZM385.44,248.088C385.44,248.088 372.881,259.516 360.239,271.624C353.002,278.555 345.738,285.708 340.787,291.069C325.979,307.1 313.428,346.65 318.104,374.103C319.611,385.653 327.84,397.908 335.787,407.069C343.734,416.23 356.453,424.402 365.787,429.069C373.742,433.046 382.925,434.301 391.787,435.069C401.187,435.883 422.187,433.953 422.187,433.953C422.187,433.953 415.817,396.486 412.29,378.695C408.811,361.152 403.704,335.006 401.787,326.069C401.688,325.608 401.179,324.807 400.787,325.069C394.091,329.545 384.558,333.337 379.195,339.443C373.832,345.55 368.812,353.492 368.608,361.707C368.373,371.144 372.274,389.174 377.787,396.069C379.975,399.632 385.787,405.069 385.787,405.069C385.787,405.069 371.011,400.077 366.116,394.462C360.449,387.962 352.654,376.634 351.787,366.069C350.825,354.353 353.347,336.503 360.347,324.169C367.347,311.836 383.2,299.511 393.787,292.069L385.44,248.088Z"/>
        </g>
    </g>
    <g transform="matrix(0.870944,-6.63726e-06,7.25875e-06,0.952496,-41.0285,113.426)">
        <g transform="matrix(1.4955,-0.412512,-0.920112,-2.78899,-130.344,1799.98)">
            <path d="M899,220L715,371L766.169,405.471L770.169,405.471L913.169,234.471L913.169,231.471L902,220L899,220Z" style="fill:rgb(128,128,128);fill-rule:nonzero;stroke:white;stroke-width:6.86px;"/>
        </g>
        <g transform="matrix(-0.0224813,-1.53943,-3.06791,0.0374589,1834.36,1569.56)">
            <path d="M899,220L715,371L766.169,405.471L770.169,405.471L913.169,234.471L913.169,231.471L902,220L899,220Z" style="fill-rule:nonzero;stroke:white;stroke-width:6.96px;"/>
        </g>
    </g>
    <g transform="matrix(1.00411,-7.65211e-06,8.36863e-06,1.09813,-101.707,55.0717)">
        <path d="M564.478,302.11C557.978,305.976 557,311 557,311L557,561C557,561 557.642,567.682 564,571C570.147,574.207 579,571 579,571L774,454C774,454 788.505,442.999 789.155,436.582C789.863,429.59 779,421 779,421L577,300C577,300 571.029,298.215 564.478,302.11Z" style="fill-rule:nonzero;stroke:white;stroke-width:14.26px;"/>
    </g>
</svg>
