<svg width="272" height="16" viewBox="0 0 272 16" fill="none" xmlns="http://www.w3.org/2000/svg">
<g clip-path="url(#clip0_689_11918)">
<path d="M16.0217 7.75928C16.0387 12.0602 12.5647 15.5613 8.2638 15.5816C3.96287 15.5986 0.461803 12.1246 0.441468 7.82368C0.424522 3.52275 3.89848 0.0216778 8.1994 0.00134244H8.22991C12.5071 -0.0223821 15.9946 3.42446 16.0183 7.70166C16.0183 7.722 16.0183 7.73894 16.0183 7.75928M2.10558 7.73895C2.14286 11.1214 4.91525 13.8328 8.29769 13.7955C11.6801 13.7582 14.3915 10.9858 14.3542 7.60338C14.317 4.24804 11.5852 1.54344 8.22991 1.54344C4.83729 1.57394 2.10219 4.33616 2.10558 7.72878" fill="white"/>
<path d="M19.9566 15.2055H18.2891V0.259033H20.4514C23.2848 0.259033 25.9182 1.01483 25.9182 4.38711C25.9182 6.68501 24.4744 8.31183 22.1731 8.51519L26.935 15.2157H24.8743L20.3565 8.64737H19.9532V15.2089L19.9566 15.2055ZM19.9566 7.17983H20.4717C22.3561 7.17983 24.2575 6.82057 24.2575 4.50234C24.2575 2.04516 22.4544 1.80791 20.448 1.80791H19.96V7.17983H19.9566Z" fill="white"/>
<path d="M29.0195 0.259033H36.7707V1.80791H30.687V6.24441H36.5945V7.79328H30.687V13.66H36.7707V15.2055H29.0195V0.259033Z" fill="white"/>
<path d="M53.5002 7.69473C53.5375 9.71471 53.324 11.3822 51.9547 12.965C50.555 14.5511 48.5418 15.4595 46.4269 15.4628C42.1565 15.5171 38.652 12.1007 38.5944 7.8303C38.5402 3.55988 41.9565 0.0554196 46.2269 -0.00219727C46.3252 -0.00219727 46.4269 -0.00219727 46.5252 -0.00219727C49.1417 -0.00219727 51.2633 1.16709 52.8461 3.23112L51.6361 4.35974C50.3889 2.59734 48.7044 1.54668 46.5048 1.54668C43.0953 1.54668 40.3975 4.4038 40.3975 7.78963C40.4008 9.3724 41.0279 10.8874 42.1395 12.0126C43.2308 13.1006 44.817 13.9174 46.3828 13.9174C48.979 13.9174 51.7141 12.0126 51.7141 9.24022H47.264V7.69135H53.4968L53.5002 7.69473Z" fill="white"/>
<path d="M70.6819 7.75928C70.6988 12.0602 67.2249 15.5613 62.924 15.5816C58.623 15.5986 55.122 12.1246 55.1016 7.82368C55.0847 3.52275 58.5586 0.0216778 62.8596 0.00134244H62.8901C67.1673 -0.0223821 70.6548 3.42446 70.6785 7.70166C70.6785 7.722 70.6785 7.73894 70.6785 7.75928M56.7657 7.73895C56.803 11.1214 59.5754 13.8328 62.9578 13.7955C66.3403 13.7582 69.0517 10.9858 69.0144 7.60338C68.9771 4.24804 66.2454 1.54344 62.8901 1.54344C59.4974 1.57394 56.7623 4.33616 56.7657 7.72878" fill="white"/>
<path d="M72.6465 -0.371582L84.302 11.833V0.258814H85.9661V15.8798L74.3106 3.68871V15.2053H72.6465V-0.371582Z" fill="white"/>
<path d="M93.7227 15.2055V0.259033H99.2708C101.928 0.259033 103.717 1.28936 103.717 4.14647C103.717 5.492 103.28 6.58333 102.07 7.19678V7.23406C104.212 7.51198 105.124 8.96256 105.124 11.0435C105.124 14.1752 102.447 15.2055 99.7114 15.2055H93.726H93.7227ZM97.6067 6.12239H98.0405C99.0709 6.12239 100.142 5.94615 100.142 4.67519C100.142 3.30934 98.9319 3.23138 97.8812 3.23138H97.6033V6.12578L97.6067 6.12239ZM97.6067 12.2264H98.1015C99.2505 12.2264 101.196 12.2874 101.196 10.6402C101.196 8.83716 99.2708 9.0134 98.0202 9.0134H97.6237L97.6067 12.2264Z" fill="white"/>
<path d="M112.533 12.6094L111.503 15.2055H107.375L113.127 0.259033H117.37L122.999 15.2055H118.871L117.899 12.6094H112.533ZM115.248 4.88194H115.221L113.618 9.6438H116.848L115.252 4.88194H115.248Z" fill="white"/>
<path d="M130.205 11.9146H136.298V15.2055H126.324V0.259033H130.205V11.9146Z" fill="white"/>
<path d="M143.84 11.9146H149.937V15.2055H139.959V0.259033H143.84V11.9146Z" fill="white"/>
<path d="M157.716 3.54997V6.04783H163.531V9.33877H157.716V11.9146H163.769V15.2055H153.828V0.259033H163.769V3.54997H157.716Z" fill="white"/>
<path d="M175.041 15.2055H171.157V3.54997H167.283V0.259033H178.912V3.54997H175.041V15.2055Z" fill="white"/>
<path d="M191.942 15.2224H190.278V1.8214H186.672V0.279297H195.589V1.8214H191.942V15.2224Z" fill="white"/>
<path d="M207.938 6.34262V0.279297H209.602V15.2224H207.938V7.88811H200.289V15.2224H198.621V0.279297H200.289V6.34262H207.938Z" fill="white"/>
<path d="M213.953 0.275635H221.701V1.82112H215.617V6.26101H221.525V7.80649H215.617V13.6766H221.701V15.2187H213.953V0.275635Z" fill="white"/>
<path d="M227.906 10.9789L226.103 15.2222H224.28L231.177 -0.436035L237.894 15.2222H236.05L234.295 10.9789H227.906ZM231.139 3.44802L228.58 9.43339H233.637L231.143 3.44802H231.139Z" fill="white"/>
<path d="M243.559 15.2224H241.895V1.8214H238.285V0.279297H247.206V1.8214H243.559V15.2224Z" fill="white"/>
<path d="M252.496 15.2221H250.832V0.275635H252.991C255.828 0.275635 258.461 1.03143 258.461 4.40371C258.461 6.70161 257.014 8.32843 254.713 8.53179L259.475 15.2323H257.434L252.91 8.66397H252.493V15.2255L252.496 15.2221ZM252.496 7.19643H253.011C254.896 7.19643 256.8 6.83718 256.8 4.51895C256.8 2.06176 254.997 1.82451 252.991 1.82451H252.496V7.19643Z" fill="white"/>
<path d="M263.363 0.275635H271.111V1.82112H265.027V6.26101H270.935V7.80649H265.027V13.6766H271.111V15.2187H263.363V0.275635Z" fill="white"/>
</g>
<defs>
<clipPath id="clip0_689_11918">
<rect width="272" height="16" fill="white"/>
</clipPath>
</defs>
</svg>
