<?xml version="1.0" encoding="UTF-8"?>
<svg id="Layer_1" data-name="Layer 1" xmlns="http://www.w3.org/2000/svg" width="269" height="76" viewBox="0 0 622.83 202.73">
  <defs>
    <style>
      .cls-1 {
        fill: #fff;
      }
    </style>
  </defs>
  <path class="cls-1" d="m116.88,19.89c-1.19-4.08-4.93-5.95-11.31-5.95-4.51,0-9.27,1.28-9.27,4.25,0,3.15,3.74,3.83,11.22,4.85l7.06.94c6.8.85,21.25,3.57,21.25,18.87,0,6.63-2.72,10.71-5.53,13.43-4.68,4.59-11.99,7.14-23.12,7.14-12.5,0-28.82-3.15-31.45-21.34l18.02-1.02c.85,4,4.93,8.25,14.11,8.25,5.1,0,9.35-1.19,9.35-4.76,0-4.42-8.76-5.02-12.67-5.7l-8.5-1.45c-11.31-1.96-18.62-7.23-18.62-17.85C77.44,1.7,97.67,0,107.87,0c5.02,0,23.97,1.02,27.29,18.7l-18.28,1.19Z"/>
  <path class="cls-1" d="m176.72,39.02v22.7h-18.02v-22.95L133.11,1.7h20.83l13.94,20.74,13.6-20.74h20.83l-25.59,37.32Z"/>
  <path class="cls-1" d="m240.55,1.7c10.37,0,21,2.21,27.12,11.39,3.74,5.61,5.02,11.56,5.02,18.19,0,12.16-5.19,23.38-17,28.05-4.68,1.87-10.2,2.38-15.22,2.38h-34V1.7h34.09Zm-16.07,45.99h13.01c8.25,0,16.49-2.72,16.49-16.41,0-11.14-6.46-15.56-16.75-15.56h-12.75v31.96Z"/>
  <path class="cls-1" d="m323.68,61.71l-27.88-34.77v34.77h-18.11V1.7h18.7l27.54,34.43V1.7h17.94v60.01h-18.19Z"/>
  <path class="cls-1" d="m348.58,61.71V1.7h55.59v13.94h-37.57v8.5h35.96v13.69h-35.96v9.86h38.76v14.03h-56.78Z"/>
  <path class="cls-1" d="m452.11,39.02v22.7h-18.02v-22.95L408.5,1.7h20.83l13.94,20.74,13.6-20.74h20.83l-25.59,37.32Z"/>
  <path class="cls-1" d="m34.09,71.4c10.37,0,21,2.21,27.12,11.39,3.74,5.61,5.02,11.56,5.02,18.19,0,12.16-5.19,23.38-17,28.05-4.68,1.87-10.2,2.38-15.22,2.38H0v-60.01h34.09Zm-16.07,45.99h13.01c8.25,0,16.49-2.72,16.49-16.41,0-11.14-6.46-15.56-16.75-15.56h-12.75v31.96Z"/>
  <path class="cls-1" d="m112.03,131.42l-4.08-12.16h-21.42l-4.08,12.16h-19.72l23.29-60.01h22.53l23.21,60.01h-19.72Zm-14.71-44.46l-6.46,19.38h12.75l-6.29-19.38Z"/>
  <path class="cls-1" d="m181.56,131.42l-27.88-34.77v34.77h-18.11v-60.01h18.7l27.54,34.43v-34.43h17.94v60.01h-18.19Z"/>
  <path class="cls-1" d="m272.94,110.59c-4.76,16.83-19.89,22.44-34.26,22.44-19.21,0-33.66-11.65-33.66-31.79s16.07-31.54,35.11-31.54c13.6,0,27.8,5.78,31.37,21l-19.04,1.27c-1.62-5.35-7.57-7.65-12.75-7.65-9.86,0-16.41,7.06-16.41,16.83s6.21,17.26,16.66,17.26c6.12,0,11.31-2.72,13.52-8.67l19.47.85Z"/>
  <path class="cls-1" d="m277.7,131.42v-60.01h55.59v13.94h-37.57v8.5h35.96v13.69h-35.96v9.86h38.76v14.03h-56.78Z"/>
  <g>
    <path class="cls-1" d="m200.59,180.29c-4.76,16.83-19.89,22.44-34.26,22.44-19.21,0-33.66-11.65-33.66-31.79s16.07-31.54,35.11-31.54c13.6,0,27.8,5.78,31.37,21l-19.04,1.27c-1.62-5.36-7.57-7.65-12.75-7.65-9.86,0-16.41,7.06-16.41,16.83s6.21,17.26,16.66,17.26c6.12,0,11.31-2.72,13.52-8.67l19.47.85Z"/>
    <path class="cls-1" d="m237.78,202.73c-20.91,0-34.68-13.43-34.68-31.54,0-20.23,16.07-31.79,35.19-31.79,22.36,0,34.34,15.13,34.34,31.79,0,21.59-17.94,31.54-34.85,31.54Zm.42-48.71c-10.29,0-16.75,6.8-16.75,17s6.21,17.09,16.32,17.09,16.49-6.8,16.49-16.83-5.87-17.26-16.07-17.26Z"/>
    <path class="cls-1" d="m336.29,201.11c.17-17.6.17-39.95.17-39.95l-12.24,39.95h-16.75l-12.41-40.63v9.18c0,7.31,0,18.45.26,31.45h-17.6v-60.01h24.91l13.26,41.48,13.52-41.48h24.57v60.01h-17.68Z"/>
    <path class="cls-1" d="m395.62,141.1c11.14,0,24.4,3.91,24.4,20.4,0,4-.85,8.08-3.14,11.48-5.53,8.16-14.96,8.33-23.89,8.33h-14.11v19.81h-18.11v-60.01h34.85Zm-16.83,26.69h13.35c4.59,0,9.95-.51,9.95-6.46,0-5.36-4.17-6.29-8.59-6.29h-14.71v12.75Z"/>
    <path class="cls-1" d="m461.75,201.11l-4.08-12.16h-21.42l-4.08,12.16h-19.72l23.29-60.01h22.53l23.21,60.01h-19.72Zm-14.71-44.46l-6.46,19.38h12.75l-6.29-19.38Z"/>
    <path class="cls-1" d="m531.28,201.11l-27.88-34.77v34.77h-18.11v-60.01h18.7l27.54,34.43v-34.43h17.94v60.01h-18.19Z"/>
    <path class="cls-1" d="m597.24,178.42v22.7h-18.02v-22.95l-25.59-37.06h20.83l13.94,20.74,13.6-20.74h20.83l-25.59,37.32Z"/>
  </g>
</svg>