<svg id="Component_12_1" data-name="Component 12 – 1" xmlns="http://www.w3.org/2000/svg" width="69" height="39.3" viewBox="0 0 69 39.3">
  <g id="Group_105" data-name="Group 105" transform="translate(-131.4 -179.7)">
    <path id="Path_53" data-name="Path 53" d="M178.4,187.8a6.5,6.5,0,0,0-.8-3.1,10.149,10.149,0,0,0-2.4-2.7,12.63,12.63,0,0,0-3.7-1.7,18.565,18.565,0,0,0-4.8-.6H153.5v8.2H131.4v2.2h8.3V219h52.4V190.1h8.3v-2.2h-22ZM158.9,182h4.5a16.66,16.66,0,0,1,4.2.5,7.846,7.846,0,0,1,2.9,1.4,5.65,5.65,0,0,1,1.7,2.1,6.1,6.1,0,0,1,.5,2.8,7.512,7.512,0,0,1-.5,2.6,7.434,7.434,0,0,1-1.3,2.1,6.923,6.923,0,0,1-2.2,1.4,8.807,8.807,0,0,1-2.9.5h-7V182Zm0,15.4h5.8a13.745,13.745,0,0,1,4.4.6,7.315,7.315,0,0,1,2.9,1.6,5.357,5.357,0,0,1,1.6,2.4,10.068,10.068,0,0,1,.5,3.1,5.954,5.954,0,0,1-.6,2.7,5.65,5.65,0,0,1-1.7,2.1,9.791,9.791,0,0,1-2.9,1.4,17.27,17.27,0,0,1-4.2.5h-5.9V197.4Zm-13.8,20.4V190h8.3v24.2h15.3a14.055,14.055,0,0,0,4.7-.7,10.488,10.488,0,0,0,3.6-2,7.561,7.561,0,0,0,2.3-3,9.093,9.093,0,0,0,.8-3.7,10.732,10.732,0,0,0-.5-3.2,8.743,8.743,0,0,0-1.5-2.5,10.766,10.766,0,0,0-2.4-1.8,10.02,10.02,0,0,0-3.2-1v-.1a32.235,32.235,0,0,0,2.9-1.7,7.638,7.638,0,0,0,1.8-1.8,5.119,5.119,0,0,0,1-2.1,1.268,1.268,0,0,0,.1-.6h8.2v27.8H145.1Z"/>
  </g>
</svg>
